<svg width="149" height="15" viewBox="0 0 149 15" fill="none" xmlns="http://www.w3.org/2000/svg">
<path d="M0.228725 3.47866V1.12279H10.2926V3.47866H6.63302V14H3.86545V3.47866H0.228725ZM14.7912 14H12.0236V1.12279H14.7912V6.42921H20.3263V1.12279H23.071V14H20.3263V8.53348H14.7912V14ZM31.8494 11.6441V14H25.7424V11.6441H27.435V3.47866H25.7424V1.12279H31.8494V3.47866H30.1797V11.6441H31.8494ZM33.827 14L37.7382 1.12279H42.2898L46.3153 14H43.3648L42.4042 10.5691H37.7382L36.8004 14H33.827ZM40.0712 2.26642L38.3329 8.44199H41.8095L40.0712 2.26642ZM53.2938 14.2516C52.0282 14.2516 50.9227 14 49.9773 13.4968C49.0319 12.9936 48.3 12.2541 47.7815 11.2782C47.2783 10.287 47.042 9.07479 47.0725 7.64145C47.103 6.17761 47.4079 4.95012 47.9874 3.95898C48.5668 2.95259 49.3445 2.19017 50.3204 1.67173C51.3115 1.15329 52.4475 0.894067 53.7284 0.894067C55.5429 0.894067 56.9305 1.27528 57.8911 2.03769C58.8518 2.80011 59.4998 3.90561 59.8353 5.3542L57.1592 5.76591C57.022 5.18647 56.7704 4.72902 56.4044 4.39356C56.0537 4.05809 55.642 3.82174 55.1693 3.68451C54.6966 3.54728 54.2163 3.47866 53.7284 3.47866C52.356 3.47866 51.3572 3.84462 50.7321 4.57654C50.1221 5.30846 49.8095 6.26148 49.7943 7.4356C49.7943 8.77745 50.1602 9.79909 50.8922 10.5005C51.6393 11.2019 52.6991 11.5526 54.0714 11.5526C54.8034 11.5526 55.4972 11.4002 56.1528 11.0952C56.8238 10.7902 57.2812 10.2489 57.5252 9.47125H55.0778V7.48134H60.0869V14H58.2342L57.6167 12.0558H57.5709C57.3117 12.6048 56.8238 13.108 56.1071 13.5654C55.3904 14.0229 54.4527 14.2516 53.2938 14.2516ZM67.9072 14.3202C65.8029 14.3202 64.1942 13.7179 63.0811 12.5133C61.9679 11.2934 61.4114 9.65423 61.4114 7.5957C61.4114 6.2386 61.6477 5.06448 62.1204 4.07334C62.6084 3.06695 63.3327 2.28929 64.2933 1.74035C65.2539 1.17616 66.4586 0.894067 67.9072 0.894067C70.0267 0.894067 71.6354 1.504 72.7332 2.72387C73.8311 3.92848 74.3801 5.55243 74.3801 7.5957C74.3801 8.92231 74.1361 10.0964 73.6481 11.1181C73.1602 12.1245 72.4359 12.9097 71.4753 13.4739C70.5146 14.0381 69.3252 14.3202 67.9072 14.3202ZM67.8843 11.6441C68.7229 11.6441 69.4244 11.4688 69.9885 11.1181C70.5527 10.7521 70.9721 10.2642 71.2465 9.65423C71.521 9.0443 71.6582 8.35812 71.6582 7.5957C71.6582 6.83329 71.521 6.13949 71.2465 5.51431C70.9721 4.88913 70.5527 4.39356 69.9885 4.0276C69.4244 3.66164 68.7229 3.47866 67.8843 3.47866C66.6492 3.47866 65.7114 3.86749 65.071 4.64515C64.4305 5.40757 64.1103 6.39109 64.1103 7.5957C64.1103 8.34287 64.2476 9.02142 64.522 9.63136C64.7965 10.2413 65.2082 10.7292 65.7571 11.0952C66.3213 11.4612 67.0304 11.6441 67.8843 11.6441ZM77.519 14C76.8785 14 76.4516 13.8475 76.2381 13.5426C76.0246 13.2223 75.9179 12.8411 75.9179 12.3989C75.9179 11.9872 76.0246 11.6289 76.2381 11.3239C76.4668 11.019 76.8938 10.8665 77.519 10.8665C78.1289 10.8665 78.5406 11.019 78.7541 11.3239C78.9675 11.6289 79.0743 11.9872 79.0743 12.3989C79.0743 12.8564 78.9675 13.2376 78.7541 13.5426C78.5406 13.8475 78.1289 14 77.519 14ZM97.4532 1.12279H99.0543L95.2575 14H92.8558L89.7452 3.06695L86.543 14H84.1414L80.4818 1.12279H82.0372L85.3537 13.3138L88.9675 1.12279H90.5457L94.0452 13.3138L97.4532 1.12279ZM106.21 14.3202C104.198 14.3202 102.665 13.7179 101.613 12.5133C100.561 11.2934 100.035 9.65423 100.035 7.5957C100.035 6.2386 100.263 5.06448 100.721 4.07334C101.178 3.06695 101.865 2.28929 102.779 1.74035C103.694 1.17616 104.838 0.894067 106.21 0.894067C108.238 0.894067 109.771 1.504 110.808 2.72387C111.845 3.92848 112.363 5.55243 112.363 7.5957C112.363 8.92231 112.127 10.0964 111.654 11.1181C111.197 12.1245 110.51 12.9097 109.595 13.4739C108.681 14.0381 107.552 14.3202 106.21 14.3202ZM106.21 13.3367C107.903 13.3367 109.184 12.8106 110.053 11.7585C110.922 10.7064 111.357 9.31877 111.357 7.5957C111.357 5.87264 110.93 4.49267 110.076 3.45579C109.222 2.40365 107.933 1.87758 106.21 1.87758C104.518 1.87758 103.237 2.38078 102.368 3.38717C101.499 4.39356 101.064 5.7964 101.064 7.5957C101.064 9.30352 101.483 10.6911 102.322 11.7585C103.176 12.8106 104.472 13.3367 106.21 13.3367ZM114.732 14V1.12279H118.735C119.818 1.12279 120.733 1.22953 121.48 1.44301C122.227 1.65648 122.791 2.03007 123.172 2.56376C123.569 3.0822 123.767 3.8065 123.767 4.73664C123.767 5.31608 123.66 5.8574 123.447 6.36059C123.233 6.86378 122.898 7.26787 122.44 7.57283C121.998 7.8778 121.419 8.03028 120.702 8.03028C121.403 8.03028 121.922 8.18277 122.257 8.48773C122.608 8.77745 122.837 9.15103 122.944 9.60848C123.066 10.0507 123.127 10.5158 123.127 11.0037C123.142 11.4917 123.157 11.9415 123.172 12.3532C123.203 12.7496 123.294 13.047 123.447 13.2452C123.614 13.4282 123.912 13.4434 124.339 13.291V14.0457C124.263 14.1067 124.11 14.1601 123.881 14.2059C123.668 14.2516 123.431 14.2363 123.172 14.1601C122.913 14.0839 122.692 13.9085 122.509 13.634C122.326 13.3596 122.234 12.9402 122.234 12.3761C122.234 11.4917 122.196 10.7826 122.12 10.2489C122.059 9.71522 121.914 9.31114 121.686 9.03667C121.472 8.74695 121.129 8.55635 120.656 8.46486C120.199 8.35812 119.574 8.30475 118.781 8.30475C117.988 8.30475 116.989 8.31238 115.784 8.32762V14H114.732ZM115.784 7.48134H119.147C120.382 7.48134 121.304 7.29836 121.914 6.9324C122.524 6.55119 122.829 5.83452 122.829 4.78239C122.829 3.97423 122.661 3.37954 122.326 2.99834C122.006 2.60188 121.525 2.34266 120.885 2.22067C120.26 2.09868 119.497 2.03769 118.598 2.03769H115.784V7.48134ZM126.798 14.0229V1.12279H127.85V8.14464L135.17 1.12279H136.519V1.35152L130.824 6.65793L136.794 13.7713V14H135.558L130.069 7.36698L127.85 9.4255V14.0229H126.798ZM143.565 14.2973C142.68 14.2973 141.826 14.1525 141.003 13.8628C140.195 13.573 139.531 13.1232 139.013 12.5133C138.495 11.8881 138.22 11.0799 138.19 10.0888H139.242C139.242 10.1346 139.257 10.2794 139.288 10.5234C139.318 10.7521 139.394 11.0266 139.516 11.3468C139.653 11.6518 139.875 11.9567 140.18 12.2617C140.5 12.5667 140.934 12.8259 141.483 13.0394C142.032 13.2376 142.749 13.3367 143.633 13.3367C144.426 13.3367 145.059 13.2452 145.532 13.0622C146.02 12.864 146.386 12.6277 146.63 12.3532C146.874 12.0787 147.034 11.8119 147.11 11.5526C147.201 11.2782 147.255 11.0723 147.27 10.9351C147.285 10.3557 147.133 9.89058 146.813 9.53987C146.508 9.17391 146.096 8.88419 145.577 8.67071C145.074 8.44199 144.51 8.25138 143.885 8.0989C143.275 7.94642 142.657 7.78631 142.032 7.61858C141.422 7.4356 140.858 7.20687 140.34 6.9324C139.836 6.65793 139.432 6.2996 139.127 5.8574C138.822 5.41519 138.685 4.83576 138.716 4.11909C138.746 3.44816 138.975 2.87635 139.402 2.40365C139.844 1.9157 140.424 1.54212 141.14 1.2829C141.857 1.02368 142.657 0.894067 143.542 0.894067C144.396 0.894067 145.181 1.04655 145.898 1.35152C146.614 1.65648 147.179 2.11393 147.59 2.72387C148.017 3.3338 148.215 4.09621 148.185 5.01111H147.156C147.171 4.37068 147.049 3.84462 146.79 3.43291C146.546 3.02121 146.226 2.70099 145.829 2.47227C145.433 2.24354 145.021 2.09106 144.594 2.01482C144.167 1.92333 143.786 1.87758 143.45 1.87758C142.398 1.87758 141.529 2.09868 140.843 2.54089C140.157 2.96784 139.806 3.51678 139.791 4.1877C139.775 4.76714 139.92 5.23221 140.225 5.58293C140.546 5.93364 140.957 6.21573 141.46 6.42921C141.979 6.62744 142.543 6.80279 143.153 6.95527C143.778 7.10776 144.396 7.26787 145.006 7.4356C145.616 7.60333 146.172 7.82443 146.675 8.0989C147.194 8.37337 147.598 8.74695 147.888 9.21965C148.193 9.6771 148.337 10.2718 148.322 11.0037C148.292 11.7051 148.063 12.2998 147.636 12.7878C147.209 13.2757 146.637 13.6493 145.921 13.9085C145.219 14.1677 144.434 14.2973 143.565 14.2973Z" fill="black"/>
</svg>
