<svg width="144" height="14" viewBox="0 0 144 14" fill="none" xmlns="http://www.w3.org/2000/svg">
<path d="M6.57052 0.66438V13.1299H3.80295V0.66438H6.57052ZM0.166225 2.60854V0.252675H10.2301V2.60854H0.166225ZM14.7287 13.1299H11.9611V0.252675H14.7287V13.1299ZM20.2638 0.252675H23.0085V13.1299H20.2638V0.252675ZM21.9792 7.66336H13.1962V5.55909H21.9792V7.66336ZM27.3502 12.7182V0.66438H30.0949V12.7182H27.3502ZM25.6576 13.1299V10.774H31.7646V13.1299H25.6576ZM25.6576 2.60854V0.252675H31.7646V2.60854H25.6576ZM33.7421 13.1299L37.6533 0.252675H42.1821L46.2305 13.1299H43.28L39.9863 1.3963L36.7156 13.1299H33.7421ZM36.6927 9.69901L36.6241 7.57187H43.2571L43.2342 9.69901H36.6927ZM53.1866 13.3815C51.9362 13.3815 50.8307 13.1299 49.8701 12.6267C48.9247 12.1235 48.2004 11.3839 47.6972 10.4081C47.194 9.41692 46.95 8.20467 46.9653 6.77133C47.011 5.32274 47.316 4.09525 47.8802 3.08886C48.4596 2.08247 49.2449 1.32006 50.2361 0.801614C51.2272 0.283171 52.3556 0.0239501 53.6212 0.0239501C55.4357 0.0239501 56.8233 0.405158 57.784 1.16757C58.7446 1.92999 59.385 3.03549 59.7053 4.48408L57.0521 4.89579C56.9148 4.3011 56.6632 3.84365 56.2973 3.52344C55.9466 3.18798 55.5348 2.95163 55.0621 2.81439C54.5895 2.67716 54.1091 2.60854 53.6212 2.60854C52.2488 2.60854 51.2424 2.98212 50.602 3.72929C49.9768 4.46121 49.6719 5.40661 49.6871 6.56548C49.6871 7.90733 50.0531 8.92897 50.785 9.63039C51.5322 10.3318 52.5919 10.6825 53.9643 10.6825C54.4522 10.6825 54.9249 10.6215 55.3824 10.4995C55.8551 10.3623 56.2744 10.1412 56.6404 9.83625C57.0063 9.53128 57.2655 9.11957 57.418 8.60113H54.9707V6.61122H59.9797V13.1299H58.1271L57.5095 11.1857H57.4638C57.3418 11.4602 57.1588 11.727 56.9148 11.9863C56.6708 12.2455 56.3659 12.4818 55.9999 12.6953C55.6492 12.8935 55.2375 13.0536 54.7648 13.1756C54.2921 13.3129 53.766 13.3815 53.1866 13.3815ZM67.8 13.4501C65.6957 13.4501 64.087 12.8478 62.9739 11.6432C61.8608 10.4233 61.3042 8.78411 61.3042 6.72559C61.3042 5.36849 61.5405 4.19437 62.0132 3.20323C62.5012 2.19684 63.2255 1.41917 64.1861 0.870232C65.1468 0.306044 66.3514 0.0239501 67.8 0.0239501C69.9195 0.0239501 71.5282 0.633883 72.6261 1.85375C73.724 3.05837 74.2729 4.68231 74.2729 6.72559C74.2729 8.05219 74.0289 9.22631 73.541 10.2479C73.053 11.2543 72.3287 12.0396 71.3681 12.6038C70.4074 13.168 69.2181 13.4501 67.8 13.4501ZM67.7542 10.774C68.6081 10.774 69.3172 10.5987 69.8814 10.2479C70.4456 9.89724 70.8649 9.41692 71.1394 8.80698C71.4138 8.1818 71.5511 7.488 71.5511 6.72559C71.5511 5.96317 71.4138 5.26937 71.1394 4.64419C70.8649 4.01901 70.4456 3.52344 69.8814 3.15748C69.3324 2.79152 68.6234 2.60854 67.7542 2.60854C66.5344 2.60854 65.5966 2.98975 64.9409 3.75216C64.3005 4.51458 63.9803 5.50572 63.9803 6.72559C63.9803 7.47276 64.1175 8.15893 64.392 8.78411C64.6817 9.39404 65.101 9.88199 65.65 10.2479C66.1989 10.5987 66.9003 10.774 67.7542 10.774ZM83.656 0.252675H85.2342L84.4336 2.19684L81.2315 13.1299H78.8299L75.1703 0.252675H76.7256L80.0421 12.4437L83.656 0.252675ZM92.1417 0.252675H93.7427L89.9459 13.1299H87.5443L84.4336 2.19684L83.656 0.252675H85.2342L88.7337 12.4437L92.1417 0.252675ZM100.899 13.4501C98.886 13.4501 97.3535 12.8478 96.3014 11.6432C95.2493 10.4233 94.7232 8.78411 94.7232 6.72559C94.7232 5.36849 94.9519 4.19437 95.4094 3.20323C95.8668 2.19684 96.553 1.41917 97.4679 0.870232C98.3828 0.306044 99.5264 0.0239501 100.899 0.0239501C102.912 0.0239501 104.436 0.633883 105.473 1.85375C106.525 3.05837 107.051 4.68231 107.051 6.72559C107.051 8.05219 106.815 9.22631 106.342 10.2479C105.885 11.2543 105.199 12.0396 104.284 12.6038C103.384 13.168 102.256 13.4501 100.899 13.4501ZM100.899 12.4666C102.042 12.4666 102.988 12.2302 103.735 11.7575C104.497 11.2696 105.069 10.5987 105.45 9.74476C105.847 8.8756 106.045 7.86921 106.045 6.72559C106.045 5.56672 105.854 4.56033 105.473 3.70642C105.107 2.85251 104.536 2.18921 103.758 1.71651C102.995 1.24382 102.042 1.00747 100.899 1.00747C99.2062 1.00747 97.9254 1.51066 97.0562 2.51705C96.187 3.52344 95.7525 4.92629 95.7525 6.72559C95.7525 7.85396 95.9355 8.85273 96.3014 9.72188C96.6674 10.5758 97.2316 11.2467 97.994 11.7347C98.7716 12.2226 99.7399 12.4666 100.899 12.4666ZM109.421 13.1299V0.252675H113.423C114.506 0.252675 115.421 0.359413 116.168 0.572889C116.915 0.786366 117.479 1.15233 117.861 1.67077C118.257 2.18921 118.455 2.92113 118.455 3.86653C118.455 4.44596 118.349 4.98728 118.135 5.49047C117.922 5.99367 117.586 6.40537 117.129 6.72559C116.687 7.03055 116.107 7.18304 115.39 7.18304C115.985 7.18304 116.45 7.2974 116.786 7.52612C117.121 7.7396 117.357 8.02169 117.495 8.37241C117.647 8.72312 117.739 9.10433 117.769 9.51603C117.815 9.92774 117.838 10.3318 117.838 10.7283C117.838 11.1247 117.861 11.4754 117.906 11.7804C117.952 12.0854 118.059 12.2988 118.227 12.4208C118.394 12.5428 118.661 12.5428 119.027 12.4208V13.1756C118.951 13.2366 118.798 13.29 118.57 13.3357C118.356 13.3815 118.12 13.3662 117.861 13.29C117.601 13.2137 117.38 13.0384 117.197 12.7639C117.014 12.4895 116.923 12.0701 116.923 11.5059C116.923 10.6215 116.885 9.91249 116.809 9.3788C116.748 8.8451 116.603 8.44102 116.374 8.16655C116.161 7.89208 115.817 7.70148 115.345 7.59474C114.872 7.488 114.239 7.43463 113.446 7.43463C112.669 7.43463 111.677 7.44226 110.473 7.45751V13.1299H109.421ZM110.473 6.61122H113.835C114.674 6.61122 115.36 6.53498 115.894 6.3825C116.443 6.21477 116.847 5.9403 117.106 5.55909C117.38 5.16263 117.518 4.61369 117.518 3.91227C117.518 3.10411 117.35 2.50943 117.014 2.12822C116.679 1.73176 116.199 1.47254 115.573 1.35055C114.948 1.22857 114.186 1.16757 113.286 1.16757H110.473V6.61122ZM122.402 8.69262V7.41176L129.835 0.252675H131.207V0.481399L122.402 8.69262ZM121.464 13.1528V0.252675H122.539V13.1528H121.464ZM130.247 13.1299L124.552 6.24526L125.306 5.51335L131.482 12.9012V13.1299H130.247ZM138.253 13.4272C137.582 13.4272 136.934 13.3434 136.309 13.1756C135.684 13.0231 135.112 12.7792 134.594 12.4437C134.075 12.093 133.663 11.6584 133.358 11.14C133.053 10.6063 132.893 9.96586 132.878 9.21869H133.93C133.93 9.26443 133.945 9.40167 133.976 9.63039C134.006 9.85912 134.083 10.1336 134.205 10.4538C134.342 10.774 134.563 11.0866 134.868 11.3916C135.188 11.6965 135.623 11.9558 136.172 12.1692C136.736 12.3675 137.453 12.4666 138.322 12.4666C139.115 12.4666 139.747 12.3751 140.22 12.1921C140.708 11.9939 141.074 11.7575 141.318 11.4831C141.562 11.1933 141.722 10.9189 141.798 10.6597C141.89 10.4004 141.936 10.2022 141.936 10.065C141.951 9.48553 141.806 9.02046 141.501 8.66975C141.196 8.30379 140.784 8.01407 140.266 7.80059C139.747 7.57187 139.183 7.38127 138.573 7.22878C137.963 7.0763 137.346 6.91619 136.721 6.74846C136.111 6.56548 135.547 6.34438 135.028 6.08516C134.51 5.81069 134.098 5.45235 133.793 5.01015C133.503 4.5527 133.374 3.96564 133.404 3.24897C133.435 2.57804 133.663 2.00623 134.09 1.53353C134.533 1.04559 135.112 0.672003 135.829 0.412781C136.561 0.153561 137.361 0.0239501 138.23 0.0239501C139.099 0.0239501 139.885 0.184057 140.586 0.504272C141.303 0.809239 141.867 1.26669 142.279 1.87662C142.706 2.47131 142.904 3.2261 142.873 4.141H141.844C141.875 3.50057 141.76 2.9745 141.501 2.5628C141.242 2.15109 140.914 1.83088 140.517 1.60215C140.121 1.37343 139.709 1.22094 139.282 1.1447C138.855 1.05321 138.474 1.00747 138.139 1.00747C137.087 1.00747 136.217 1.22857 135.531 1.67077C134.86 2.09772 134.51 2.64666 134.479 3.31759C134.464 3.89702 134.609 4.3621 134.914 4.71281C135.219 5.06352 135.63 5.34561 136.149 5.55909C136.667 5.75732 137.231 5.93267 137.841 6.08516C138.467 6.23764 139.084 6.39775 139.694 6.56548C140.304 6.73321 140.861 6.95431 141.364 7.22878C141.882 7.50325 142.286 7.87684 142.576 8.34953C142.881 8.80698 143.026 9.40167 143.011 10.1336C142.98 10.835 142.751 11.4297 142.324 11.9176C141.897 12.4056 141.333 12.7792 140.632 13.0384C139.93 13.2976 139.138 13.4272 138.253 13.4272Z" fill="white"/>
</svg>
