<svg width="43" height="43" viewBox="0 0 43 43" fill="none" xmlns="http://www.w3.org/2000/svg">
<path d="M21.5 1V42M21.5 1C15.2327 1 10.1516 10.1783 10.1516 21.5C10.1516 32.8217 15.2327 42 21.5 42M21.5 1C27.7673 1 32.8484 10.1783 32.8484 21.5C32.8484 32.8217 27.7673 42 21.5 42M42 21.5H1M39.254 11.25H3.74605M39.254 31.75H3.74605" stroke="white" stroke-width="2" stroke-linecap="round" stroke-linejoin="round"/>
<path d="M1 21.5C1 32.8217 10.1783 42 21.5 42C32.8217 42 42 32.8217 42 21.5C42 10.1783 32.8217 1 21.5 1C10.1783 1 1 10.1783 1 21.5Z" stroke="white" stroke-width="2" stroke-linecap="round" stroke-linejoin="round"/>
</svg>
